<svg width="258" height="56" viewBox="0 0 258 56" fill="none" xmlns="http://www.w3.org/2000/svg">
<path d="M20.04 55.68C15.6667 55.68 12.0133 54.8267 9.07999 53.12C6.14666 51.36 3.98666 49.04 2.59999 46.16C1.21332 43.2267 0.519989 40.0267 0.519989 36.56C0.519989 32.6667 1.31999 29.2533 2.91999 26.32C4.57332 23.3867 6.83999 21.1467 9.71999 19.6C12.6 18 15.8533 17.2 19.48 17.2C25.1333 17.2 29.32 18.7733 32.04 21.92C34.8133 25.0133 36.2 29.3867 36.2 35.04C36.2 36.48 36.12 37.9733 35.96 39.52H9.55999C10.1467 42.7733 11.2933 45.12 13 46.56C14.76 48 17.1867 48.72 20.28 48.72C22.84 48.72 24.9467 48.5067 26.6 48.08C28.2533 47.6533 29.7733 47.0667 31.16 46.32L33.8 52.48C32.4667 53.3333 30.6533 54.08 28.36 54.72C26.0667 55.36 23.2933 55.68 20.04 55.68ZM27.8 33.52C27.8533 30.2133 27.1333 27.8933 25.64 26.56C24.1467 25.1733 22.0133 24.48 19.24 24.48C13.64 24.48 10.4133 27.4933 9.55999 33.52H27.8Z" fill="black"/>
<path d="M45.2581 18.16H53.7381L53.8181 24.88C54.8314 22.64 56.4314 20.8 58.6181 19.36C60.8048 17.92 63.3648 17.2 66.2981 17.2C70.0848 17.2 72.9914 18 75.0181 19.6C77.0448 21.1467 78.4048 23.3333 79.0981 26.16C79.7915 28.9867 80.1381 32.6667 80.1381 37.2V54.88H71.4981V37.44C71.4981 32.8 71.0448 29.4667 70.1381 27.44C69.2314 25.36 67.3648 24.32 64.5381 24.32C62.9381 24.32 61.3114 24.8267 59.6581 25.84C58.0048 26.8 56.6181 28.2133 55.4981 30.08C54.4314 31.9467 53.8981 34.1333 53.8981 36.64V54.88H45.2581V18.16Z" fill="black"/>
<path d="M91.0337 18.16H99.6737V25.36C100.527 22.9067 101.914 20.9333 103.834 19.44C105.754 17.9467 107.94 17.2 110.394 17.2C112.1 17.2 113.274 17.36 113.914 17.68L112.714 26.4C112.234 26.08 111.194 25.92 109.594 25.92C107.087 25.92 104.794 26.72 102.714 28.32C100.687 29.92 99.6737 32.48 99.6737 36V54.88H91.0337V18.16Z" fill="black"/>
<path d="M132.664 27.92L134.664 25.04L125.784 25.28H119.464V18.16H148.024L131.464 45.2L129.464 48.24L138.104 47.92L147.384 47.76V54.88H115.944L132.664 27.92Z" fill="black"/>
<path d="M156.836 18.16H165.796V54.88H156.836V18.16ZM161.236 11.28C159.582 11.28 158.196 10.72 157.076 9.6C155.956 8.48 155.396 7.09334 155.396 5.44C155.396 3.94667 155.956 2.66667 157.076 1.6C158.196 0.533334 159.582 0 161.236 0C162.836 0 164.196 0.533334 165.316 1.6C166.436 2.66667 166.996 3.94667 166.996 5.44C166.996 7.09334 166.436 8.48 165.316 9.6C164.249 10.72 162.889 11.28 161.236 11.28Z" fill="black"/>
<path d="M201.32 18.16H210.28V54.88H201.32V18.16ZM205.72 11.28C204.067 11.28 202.68 10.72 201.56 9.6C200.44 8.48 199.88 7.09334 199.88 5.44C199.88 3.94667 200.44 2.66667 201.56 1.6C202.68 0.533334 204.067 0 205.72 0C207.32 0 208.68 0.533334 209.8 1.6C210.92 2.66667 211.48 3.94667 211.48 5.44C211.48 7.09334 210.92 8.48 209.8 9.6C208.733 10.72 207.373 11.28 205.72 11.28Z" fill="black"/>
<path d="M222.242 18.16H230.722L230.802 24.88C231.816 22.64 233.416 20.8 235.602 19.36C237.789 17.92 240.349 17.2 243.282 17.2C247.069 17.2 249.976 18 252.002 19.6C254.029 21.1467 255.389 23.3333 256.082 26.16C256.776 28.9867 257.122 32.6667 257.122 37.2V54.88H248.482V37.44C248.482 32.8 248.029 29.4667 247.122 27.44C246.216 25.36 244.349 24.32 241.522 24.32C239.922 24.32 238.296 24.8267 236.642 25.84C234.989 26.8 233.602 28.2133 232.482 30.08C231.416 31.9467 230.882 34.1333 230.882 36.64V54.88H222.242V18.16Z" fill="black"/>
<circle cx="183.75" cy="49.75" r="5.75" fill="#E74C3C"/>
</svg>
